<?xml version="1.0" encoding="utf-8"?>
<!-- Generator: Adobe Illustrator 16.0.4, SVG Export Plug-In . SVG Version: 6.00 Build 0)  -->
<!DOCTYPE svg PUBLIC "-//W3C//DTD SVG 1.1//EN" "http://www.w3.org/Graphics/SVG/1.1/DTD/svg11.dtd">
<svg version="1.1" id="Ebene_1" xmlns="http://www.w3.org/2000/svg" xmlns:xlink="http://www.w3.org/1999/xlink" x="0px" y="0px"
	 width="841.89px" height="595.28px" viewBox="0 0 841.89 595.28" enable-background="new 0 0 841.89 595.28" xml:space="preserve">
<polygon fill="#F7A600" points="450.084,239.851 452.997,235.678 469.458,234.708 467.107,249.823 459.031,250.817 "/>
<polygon fill="#BE7C00" points="515.693,173.913 502.852,178.028 509.599,161.645 546.565,123.275 533.619,170.073 "/>
<polygon fill="#FFDB72" points="546.545,122.667 477.853,150.892 461.605,186.15 493.595,152.548 "/>
<polygon fill="#D79B05" points="475.862,215.111 533.619,170.073 515.693,173.913 462.13,185.451 "/>
<polyline fill="#FFE477" points="546.565,123.275 504.713,176.509 462.13,185.451 493.871,148.266 "/>
<polygon fill="#FFCA00" points="427.319,179.632 447.045,181.682 463.695,186.549 450.887,192.953 "/>
<polygon fill="#FFE477" points="450.887,192.953 444.739,222.925 475.862,215.111 463.695,186.549 "/>
<polygon fill="#FFE477" points="433.724,322.83 454.168,307.036 435.774,312.584 "/>
<polygon fill="#FFE477" points="451.399,308.485 464.977,265.449 464.721,285.174 "/>
<polygon fill="#D79B05" points="452.425,307.717 442.946,263.912 456.268,293.883 "/>
<polygon fill="#F7A600" points="456.268,293.883 438.08,255.202 451.399,256.227 461.39,277.745 "/>
<polygon fill="#BE7C00" points="464.977,265.449 467.172,249.37 457.804,250.847 451.656,257.508 460.424,281.876 "/>
<polygon fill="#BE7C00" points="438.08,255.202 444.739,222.925 475.862,215.111 475.736,228.561 469.458,234.708 453.295,235.683 
	450.084,239.851 459.031,250.817 452.682,258.789 "/>
<polygon fill="#BE7C00" points="421.106,246.236 430.137,282.164 436.669,292.347 420.722,286.006 "/>
<polygon fill="#BE7C00" points="436.669,292.347 435.516,313.672 453.191,307.524 446.852,281.972 433.21,259.301 "/>
<polygon fill="#D79B05" points="420.722,286.006 422.644,310.406 437.437,292.539 "/>
<polygon fill="#FFE477" points="422.644,310.406 436.284,300.416 437.437,292.539 "/>
<polygon fill="#F7A600" points="422.644,310.406 435.774,312.584 436.284,300.416 "/>
<polygon fill="#BE7C00" points="418.417,309.445 416.88,319.437 435.516,313.672 435.774,312.584 "/>
<polygon fill="#D79B05" points="433.724,322.83 424.757,326.929 417.648,317.707 435.516,313.672 "/>
<polygon fill="#D79B05" points="436.669,292.347 431.674,240.856 421.106,233.556 421.106,247.004 429.176,282.74 "/>
<polygon fill="#FFE477" points="446.852,281.972 443.97,265.064 431.674,240.856 433.018,262.375 "/>
<polygon fill="#FFE477" points="421.106,233.556 420.252,179.543 430.78,215.34 425.517,236.66 "/>
<polygon fill="#BE7C00" points="425.517,236.66 437.098,185.598 438.08,255.202 "/>
<polygon fill="#D79B05" points="438.08,255.202 451.655,192.729 435.755,183.321 "/>
<polygon fill="#FFCA00" points="430.78,215.34 437.098,195.863 435.518,182.176 427.374,179.616 420.252,179.543 "/>
<polygon fill="#FFCA00" points="458.57,295.036 457.803,362.664 447.044,312.328 "/>
<polygon fill="#BE7C00" points="432.442,323.472 450.117,378.035 457.803,362.664 447.044,312.328 "/>
<polygon fill="#F7A600" points="424.757,326.929 420.659,430.166 450.117,378.035 433.724,322.83 "/>
<polygon fill="#F7A600" points="392.235,239.851 389.321,235.678 372.861,234.708 375.212,249.823 383.288,250.817 "/>
<polygon fill="#BE7C00" points="326.627,173.913 339.468,178.028 332.72,161.645 295.754,123.275 308.7,170.073 "/>
<polygon fill="#FFDB72" points="295.775,122.667 364.467,150.892 380.713,186.15 348.724,152.548 "/>
<polygon fill="#D79B05" points="366.457,215.111 308.7,170.073 326.627,173.913 380.189,185.451 "/>
<polyline fill="#FFE477" points="295.754,123.275 337.606,176.509 380.189,185.451 348.448,148.266 "/>
<polygon fill="#FFCA00" points="415,179.632 395.274,181.682 378.624,186.549 391.432,192.953 "/>
<polygon fill="#FFE477" points="391.432,192.953 397.58,222.925 366.457,215.111 378.624,186.549 "/>
<polygon fill="#FFE477" points="408.596,322.83 387.633,306.577 406.545,312.584 "/>
<polygon fill="#FFE477" points="390.92,308.485 377.342,265.449 377.599,285.174 "/>
<polygon fill="#D79B05" points="389.895,307.717 399.374,263.912 386.052,293.883 "/>
<polygon fill="#F7A600" points="386.052,293.883 404.24,255.202 390.92,256.227 380.929,277.745 "/>
<polygon fill="#BE7C00" points="377.342,265.449 375.148,249.37 384.516,250.847 390.664,257.508 381.896,281.876 "/>
<polygon fill="#BE7C00" points="404.24,255.202 397.58,222.925 366.457,215.111 366.583,228.561 372.861,234.708 389.024,235.683 
	392.235,239.851 383.288,250.817 389.638,258.789 "/>
<polygon fill="#BE7C00" points="421.213,246.236 412.183,282.164 405.651,292.347 421.597,286.006 "/>
<polygon fill="#BE7C00" points="405.651,292.347 406.804,313.672 389.127,307.524 395.468,281.972 409.109,259.301 "/>
<polygon fill="#D79B05" points="421.597,286.006 423.412,314.633 404.882,292.539 "/>
<polygon fill="#FFE477" points="419.676,310.406 406.035,300.416 404.882,292.539 "/>
<polygon fill="#F7A600" points="419.676,310.406 406.545,312.584 406.035,300.416 "/>
<polygon fill="#BE7C00" points="419.676,310.406 419.1,317.323 406.804,313.672 406.545,312.584 "/>
<polygon fill="#D79B05" points="408.596,322.83 424.89,326.958 419.1,317.323 406.804,313.672 "/>
<polygon fill="#D79B05" points="405.651,292.347 410.646,240.856 421.213,233.556 421.213,247.004 413.144,282.74 "/>
<polygon fill="#FFE477" points="395.468,281.972 398.35,265.064 410.646,240.856 409.301,262.375 "/>
<polygon fill="#FFE477" points="421.213,233.556 422.066,179.543 411.539,215.34 416.803,236.66 "/>
<polygon fill="#BE7C00" points="416.803,236.66 405.222,185.598 404.24,255.202 "/>
<polygon fill="#D79B05" points="404.24,255.202 390.846,193.305 407.177,183.123 "/>
<polygon fill="#FFCA00" points="411.539,215.34 405.222,195.863 406.802,182.176 415,179.632 422.066,179.543 "/>
<polygon fill="#FFCA00" points="383.748,295.036 384.517,362.664 395.275,312.328 "/>
<polygon fill="#BE7C00" points="409.877,323.472 392.202,378.035 384.517,362.664 395.275,312.328 "/>
<polygon fill="#FFE477" points="424.757,326.929 419.122,471.664 392.202,378.035 408.596,322.83 "/>
</svg>
