<?xml version="1.0" encoding="utf-8"?>
<!-- Generator: Adobe Illustrator 18.0.0, SVG Export Plug-In . SVG Version: 6.00 Build 0)  -->
<!DOCTYPE svg PUBLIC "-//W3C//DTD SVG 1.1//EN" "http://www.w3.org/Graphics/SVG/1.1/DTD/svg11.dtd">
<svg version="1.1" id="Ebene_1" xmlns="http://www.w3.org/2000/svg" xmlns:xlink="http://www.w3.org/1999/xlink" x="0px" y="0px"
	 viewBox="0 0 841.9 595.3" enable-background="new 0 0 841.9 595.3" xml:space="preserve">
<polygon fill="#F7A600" points="515.9,252.5 506.8,197.6 495.8,281.6 "/>
<polygon fill="#F7A600" points="478.5,185.8 506.5,182.5 474.3,250.3 470.8,197.8 "/>
<polygon fill="#FFDB72" points="422.7,174 453.7,152.7 455.8,168.7 439.8,172.2 "/>
<polygon fill="#FFDB72" points="422.7,174 450.7,180.2 417.2,194.2 "/>
<polygon fill="#FFE477" points="440.5,172 422.7,174 453.2,181 465.7,173.5 "/>
<polygon fill="#FFE477" points="515.9,252.7 509.3,208.6 515.9,176.4 491.7,184.7 501.3,223 "/>
<polyline fill="#FFCA00" points="474.3,197.3 427.9,194.4 479.8,185.6 475.2,197 "/>
<polygon fill="#FFE477" points="436.5,280.4 459.8,248.3 449.5,191.5 413.5,202 "/>
<polygon fill="#D79B05" points="491.4,275.7 463.5,231 437.8,274.5 452,310.6 473.3,297.6 476.7,316.7 "/>
<polygon fill="#FFDB72" points="377.2,162.7 379,191 356.2,185.7 "/>
<polygon fill="#FFE477" points="379.3,155.2 365.7,177.2 380.5,190.7 393.2,154.5 "/>
<polygon fill="#BE7C00" points="480,96.9 475.2,91.4 477.8,66.5 488.5,88.3 "/>
<polygon fill="#BE7C00" points="528.8,116.8 522.8,120.7 524,111.3 528.8,86.1 537.5,112.3 "/>
<polygon fill="#F7A600" points="477.6,128.5 482.8,118.6 501.6,129.4 "/>
<polyline fill="#FFDB72" points="482.8,118.6 477.6,128.5 449.9,137.2 436.3,153 455.6,125.8 472.9,117.6 "/>
<polygon fill="#FFE477" points="435,154.8 435.5,141.2 455.3,126.2 "/>
<polygon fill="#F7A600" points="452.2,310.1 419.7,296.6 419.7,330.1 424,394.5 432.9,348.4 "/>
<polygon fill="#FFE477" points="422.5,356.5 405.9,398.8 402.7,406 413.5,370 419.5,307.5 419.7,330.1 "/>
<polygon fill="#FFCA00" points="424,394.5 422.5,356.5 407.3,394.7 382.3,455.4 411.9,417.3 "/>
<polygon fill="#FFDB72" points="413.5,412.5 399,457 383.3,452.4 "/>
<polygon fill="#FFE477" points="399.4,455.9 397.6,465.8 381.6,472.8 380,465.2 383.3,452.4 "/>
<polygon fill="#FFDB72" points="397.4,465.2 394.8,490 377.1,486.7 380.3,480.1 381.6,472.8 "/>
<polyline fill="#F7A600" points="395.3,490.4 395.7,496.8 395.6,523 382.9,513.1 378.3,495.2 376.9,486.1 394.9,488.5 "/>
<polygon fill="#FFE477" points="368.7,265.9 345.9,289.9 320.9,304.1 313.5,250.5 312.4,225.2 308.4,204.2 "/>
<polygon fill="#F7A600" points="320.9,304.1 312.2,331.2 306.9,295 313.2,283.9 313.5,250.5 "/>
<polygon fill="#FFDB72" points="354.9,280.5 345.9,289.9 332.7,297.2 332.2,260 326.7,227.3 343.3,246.6 "/>
<polygon fill="#FFDB72" points="312.2,331.2 308,348.2 297.5,302.7 307.5,294.2 "/>
<polygon fill="#BE7C00" points="297.5,302.7 294.3,308.7 293.9,338.5 297.5,366.4 306,356 308,348 "/>
<polygon fill="#FFDB72" points="306,356 303,392.4 294.7,391 297.5,366.4 "/>
<polygon fill="#FFE477" points="303,392.4 306.5,406.1 305.4,420.1 299,425.9 293.5,408.9 294.7,391 "/>
<polygon fill="#FFDB72" points="305.4,420.1 313.2,434.4 299,434.4 299,425.9 "/>

<polygon fill="#F7A600" points="342.7,291.5 335.4,295.8 338,334 338.3,350.3 343.8,344.3 346,323.3 "/>
<polygon fill="#BE7C00" points="368.8,265.6 348.6,286.8 349.5,302.3 363.7,292.5 378.3,280.9 388,269.6 "/>
<polygon fill="#FFDB72" points="343.7,344 348.5,372.2 340.2,371.2 338.3,350.3 "/>
<polygon fill="#FFE477" points="348.8,287.1 349.8,302.4 345.7,321.2 342.7,291.5 "/>
<polygon fill="#FFE477" points="348.5,372.2 352,381.9 350.9,391.9 344.5,396 339,383.9 340.2,371.2 "/>
<polygon fill="#FFDB72" points="350.9,391.9 358.7,402 344.5,402 344.5,396 "/>
<polygon fill="#FFDB72" points="440.2,192.4 417.7,197.8 397.8,210.7 394,194.3 "/>
<polygon fill="#D79B05" points="365.7,177 364.2,185.5 348.8,180.9 350.9,159.4 "/>
<polygon fill="#FFCA00" points="397.8,210.7 413,226.2 434.2,214.9 440.2,192.4 417.7,197.8 "/>
<polygon fill="#BE7C00" points="504.8,183.5 504.5,234.8 499.2,286.4 474.3,250.3 "/>
<polygon fill="#FFCA00" points="413,226.2 449.2,200.9 433.2,243.3 "/>
<polygon fill="#FFDB72" points="413,226.2 433.2,243.3 364.9,246.4 "/>
<polygon fill="#FFDB72" points="425.5,247.7 422.5,283 404.6,270.7 "/>
<polygon fill="#FFDB72" points="425,241.5 452.3,310 441.5,305.8 "/>
<polygon fill="#FFDB72" points="504.5,232.5 493.5,276.8 481.1,268.2 "/>
<polygon fill="#D79B05" points="425.8,243 441.5,305.8 420.3,297.3 "/>
<polygon fill="#FFE477" points="364.9,246.4 373.1,226.4 357.1,208.1 341.9,228.3 "/>
<polygon fill="#FFDB72" points="499.9,313.9 503.2,308.4 498.4,254.5 476.2,315.8 "/>
<polygon fill="#F7A600" points="397.8,210.7 373.1,226.4 364.9,246.4 413,226.2 "/>
<polyline fill="#FFCA00" points="397.8,210.7 357.1,208.1 373.1,226.4 397.3,212.4 397.8,210.7 "/>
<polygon fill="#FFCA00" points="368.6,155 350.9,159.4 365.8,177.4 379,155.7 "/>
<polygon fill="#FFCA00" points="338.6,167.3 306.3,201.9 322.2,220.2 341,196.4 "/>
<polygon fill="#FFCA00" points="515.8,252 500.1,274.3 503,308.2 509.2,296.4 "/>
<polygon fill="#F7A600" points="394,194.3 349.3,178 340.2,195.7 357.1,208.1 397.8,210.7 "/>
<polygon fill="#D79B05" points="341,196.8 320.3,197.7 307,202.9 326,227.3 341.9,228.3 "/>
<polygon fill="#FFE477" points="357.1,208.1 340.7,195.7 341.9,228.3 357.1,208.8 "/>
<polygon fill="#FFE477" points="351.1,159.3 337.5,168 340.8,197.3 349.3,178 "/>
<polygon fill="#FFE477" points="512,506.8 526.8,492.9 534.8,503.3 548.3,525 547.3,528.5 "/>
<polygon fill="#D79B05" points="513,508.5 506.8,485.5 497.2,429.9 527.5,494.3 522.8,501.8 "/>
<polygon fill="#FFCA00" points="496.7,428.9 506,422.3 523.3,486.4 "/>
<polyline fill="#D79B05" points="497.2,429 506.5,423 485.2,382 490,399.5 496,423.3 "/>
<polygon fill="#BE7C00" points="485.2,382 483.3,371 500,317 506,422.3 "/>
<polyline fill="#F7A600" points="483.3,371 503.3,307.8 476.6,315.5 483,366.5 "/>
<polygon fill="#BE7C00" points="392,154.7 400,155.8 395.4,166.5 390.3,170.2 390.4,177.5 383.8,181.2 "/>
<polygon fill="#FFDB72" points="383.8,181.2 394,194.3 380.5,189.8 "/>
<polygon fill="#BE7C00" points="383.7,181 390.4,177.5 395.4,186 405.1,189.3 429.6,195.1 394,194.5 "/>
<polygon fill="#D79B05" points="395.4,166.5 415.5,157 399.5,155.7 "/>
<polygon fill="#FFE477" points="422.7,174 419.8,192.5 406.2,192.9 "/>
<polygon fill="#FFDB72" points="422.7,174 406.2,192.9 394.4,189 "/>
<polygon fill="#D79B05" points="422.7,174 388.7,180.9 388.9,185 394.4,189 "/>
<polyline fill="#FFDB72" points="388.7,180.9 388.2,175.1 412.8,165.9 428.8,150.9 435,156.7 422.7,174 389,181.8 "/>
<polygon fill="#D79B05" points="388.2,175.1 389.8,169.1 412.8,165.9 "/>
<polygon fill="#FFE477" points="428.8,150.9 389.8,169.1 412.8,165.9 "/>
<polygon fill="#FFCA00" points="449.9,137.2 435.7,140.9 428.2,147.9 391.7,168.1 428.8,151.2 435,156.7 "/>
<polygon fill="#D79B05" points="389.5,170.5 394.5,170.5 398.4,176.7 388.2,175.1 "/>
<polyline fill="#BE7C00" points="484.8,185.3 495.6,171.8 489.4,163.4 408.5,194 439.5,192.8 "/>
<polygon fill="#F7A600" points="464.3,174 439.8,172.2 460.6,166.4 467.8,149.3 472.1,144 487.6,143.1 499.1,135.5 509.2,155.5 490,163.8"/>
<polyline fill="#FFCA00" points="484.8,185.3 487.7,179.4 495.6,171.8 489.5,163.8 509.2,155.5 510.4,168 504.8,183.5 486,185.3 "/>
<polygon fill="#FFDB72" points="501,128.8 513.8,142.8 513,179.3 504.8,183.5 508.5,154.7 499.1,135.5 "/>
<polyline fill="#BE7C00" points="517.9,158.8 521.9,144.8 501,128.8 512.8,141.9 512.6,179.4 515.4,180.3 "/>
<polygon fill="#FFE477" points="422.7,174 450,137.1 445.8,148.2 453.5,153.4 "/>
<polygon fill="#FFDB72" points="488.5,88.3 497,111.8 479.2,95.9 481.8,118.8 500.2,128.9 498.3,103.8 "/>
<polygon fill="#D79B05" points="475.2,91.4 472.9,117.6 482.8,118.6 482.5,104.9 479.7,96.2 "/>
<polygon fill="#BE7C00" points="474.5,101.7 497,111.8 488.5,88.3 "/>
<polygon fill="#FFDB72" points="528.8,85.8 506.1,110.1 502.6,130.5 514.5,108.8 "/>
<polygon fill="#D79B05" points="521.9,144.8 537.5,112.3 528.8,116.8 502.8,130.1 "/>
<polygon fill="#FFE477" points="528.8,86.1 523.5,119.6 502.8,130.1 514,106.5 "/>
<polyline fill="#BE7C00" points="450.3,203.5 444,268 441.2,236.7 449.5,191.5 "/>
<polyline fill="#FFCA00" points="449.5,191.5 461.1,195.4 471.8,260.4 444,268 "/>
<polygon fill="#BE7C00" points="459,189 475.8,186.9 475.3,288.9 "/>
<polygon fill="#FFCA00" points="330.9,227.3 341.9,228.3 364.9,246.4 425.8,243.8 425.5,247.7 404.6,270.7 388,269.6 368.8,265.6 
	"/>
<polygon fill="#BE7C00" points="445.8,148.2 453.5,153.4 467.8,149.3 467.8,140.5 449.2,140.5 "/>
<polyline fill="#D79B05" points="449.2,140.5 450,137.1 477.6,128.5 501,128.8 499.1,135.5 487.6,143.1 472.1,144 467.8,149.3 
	467.8,140.5 "/>
<polygon fill="#D79B05" points="453.5,153.4 467.8,149.3 460.6,166.4 455.8,168.7 "/>
</svg>
