<?xml version="1.0" encoding="utf-8"?>
<!-- Generator: Adobe Illustrator 16.0.4, SVG Export Plug-In . SVG Version: 6.00 Build 0)  -->
<!DOCTYPE svg PUBLIC "-//W3C//DTD SVG 1.1//EN" "http://www.w3.org/Graphics/SVG/1.1/DTD/svg11.dtd">
<svg version="1.1" id="Ebene_1" xmlns="http://www.w3.org/2000/svg" xmlns:xlink="http://www.w3.org/1999/xlink" x="0px" y="0px"
	 width="841.89px" height="595.28px" viewBox="0 0 841.89 595.28" enable-background="new 0 0 841.89 595.28" xml:space="preserve">
<polygon fill="#F7A600" points="533.196,252.461 524.083,197.613 513.083,281.613 "/>
<polygon fill="#F7A600" points="495.833,185.78 523.833,182.53 491.583,250.28 488.083,197.78 "/>
<polygon fill="#BE7C00" points="466.334,136.53 494.834,127.697 518.959,129.423 516.501,137.53 504.167,144.53 489.167,144.697
	486.334,149.697 479.001,167.03 471.334,169.364 469.501,155.197 463.834,149.864 462.167,145.697 463.334,140.53 "/>
<polygon fill="#FFDB72" points="440.072,171.38 470.999,152.697 473.166,168.697 457.123,172.19 "/>
<polygon fill="#FFDB72" points="440.072,171.38 468,180.197 434.5,194.197 "/>
<polygon fill="#FFE477" points="457.833,172.03 440.072,171.38 470.5,181.03 483,173.53 "/>
<polygon fill="#FFE477" points="533.196,252.673 526.638,208.649 533.224,176.427 508.998,184.659 518.641,222.997 "/>
<polyline fill="#FFCA00" points="491.632,197.349 445.208,194.405 497.098,185.622 492.527,196.984 "/>
<polygon fill="#FFE477" points="453.833,280.364 477.113,248.327 466.833,191.53 430.833,202.03 "/>
<polygon fill="#D79B05" points="508.742,275.668 480.833,231.03 455.083,274.53 469.29,310.61 490.586,297.647 494.052,316.658 "/>
<polygon fill="#FFDB72" points="394.5,162.697 396.333,191.03 373.554,185.747 "/>
<polyline fill="#FFE477" points="396.666,155.197 382.999,177.197 397.833,190.697 410.5,154.53 "/>
<polygon fill="#BE7C00" points="497.332,96.924 492.49,91.432 495.168,66.479 505.783,88.274 "/>
<polygon fill="#BE7C00" points="546.145,116.757 540.083,120.655 541.303,111.265 546.179,86.091 554.869,112.297 "/>
<polygon fill="#F7A600" points="494.975,128.496 500.172,118.598 518.959,129.423 "/>
<polyline fill="#FFDB72" points="500.172,118.598 494.975,128.496 467.282,137.186 453.652,152.965 472.974,125.811
	490.196,117.638 "/>
<polygon fill="#FFE477" points="452.308,154.808 452.8,141.241 472.642,126.249 "/>
<polygon fill="#F7A600" points="469.567,310.095 437.055,296.567 437.026,330.063 441.333,394.53 450.264,348.425 "/>
<polygon fill="#FFE477" points="439.833,356.53 423.222,398.764 420.001,406.01 430.833,370.03 436.833,307.53 437.026,330.063 "/>
<polygon fill="#FFCA00" points="441.333,394.53 439.833,356.53 424.631,394.737 399.627,455.353 429.261,417.283 "/>
<polygon fill="#FFDB72" points="430.833,412.53 416.333,457.03 400.616,452.381 "/>
<polygon fill="#FFE477" points="416.78,455.933 414.969,465.796 398.971,472.846 397.311,465.244 400.616,452.381 "/>
<polygon fill="#FFDB72" points="414.768,465.192 412.15,489.952 394.437,486.731 397.657,480.089 398.971,472.846 "/>
<polyline fill="#F7A600" points="412.656,490.438 413.058,496.78 412.955,522.965 400.273,513.102 395.644,495.187 394.235,486.128
	412.24,488.537 "/>
<polygon fill="#FFE477" points="386.011,265.91 363.246,289.886 338.212,304.071 330.878,250.542 329.714,225.219 325.713,204.198
	"/>
<polygon fill="#F7A600" points="338.212,304.071 329.544,331.152 324.216,294.994 330.544,283.92 330.878,250.542 "/>
<polygon fill="#FFDB72" points="372.241,280.452 363.246,289.886 350.075,297.228 349.549,259.994 344.017,227.339 360.583,246.58
	"/>
<polygon fill="#FFDB72" points="329.544,331.152 325.327,348.156 314.833,302.697 324.833,294.197 "/>
<path fill="#FFDB72" d="M325.212,348.156"/>
<polygon fill="#BE7C00" points="314.833,302.697 311.646,308.718 311.271,338.468 314.794,366.419 323.294,356.027 325.338,347.975
	"/>
<polygon fill="#FFDB72" points="323.294,356.027 320.294,392.396 312.044,390.979 314.794,366.419 "/>
<polygon fill="#FFE477" points="320.294,392.396 323.794,406.094 322.698,420.108 316.294,425.932 310.794,408.928 312.044,390.979
	"/>
<polygon fill="#FFDB72" points="322.698,420.108 330.544,434.434 316.294,434.434 316.294,425.932 "/>
<path fill="#F7A600" d="M330.544,434.434l4.817,8.974c0,0-9.553,0.308-12.641-3.793l-6.427-5.181H330.544z"/>
<path fill="#FFDB72" d="M370.712,340.813"/>
<polygon fill="#F7A600" points="360,291.53 352.75,295.78 355.333,334.03 355.583,350.28 361.083,344.28 363.333,323.28 "/>
<polygon fill="#BE7C00" points="386.166,265.613 365.917,286.78 366.833,302.28 381,292.532 395.666,280.864 405.333,269.613 "/>
<polygon fill="#FFDB72" points="361.031,344.021 365.794,372.209 357.544,371.203 355.583,350.28 "/>
<polygon fill="#FFE477" points="366.083,287.113 367.166,302.364 363,321.197 360,291.53 "/>
<polygon fill="#FFE477" points="365.794,372.209 369.294,381.93 368.198,391.875 361.794,396.007 356.294,383.94 357.544,371.203
	"/>
<polygon fill="#FFDB72" points="368.198,391.875 376.044,402.041 361.794,402.041 361.794,396.007 "/>
<path fill="#F7A600" d="M376.044,402.041l4.817,6.368c0,0-9.553,0.218-12.641-2.692l-6.427-3.676H376.044z"/>
<polygon fill="#FFDB72" points="457.5,192.364 435.072,197.792 415.105,210.711 411.348,194.268 "/>
<polygon fill="#D79B05" points="383,177.03 381.5,185.53 366.166,180.864 368.28,159.363 "/>
<polygon fill="#FFCA00" points="415.105,210.711 430.375,226.214 451.516,214.939 457.5,192.364 435.072,197.792 "/>
<polygon fill="#BE7C00" points="522.083,183.53 521.833,234.78 516.5,286.364 491.583,250.28 "/>
<polygon fill="#FFCA00" points="430.375,226.214 466.535,200.928 450.576,243.345 "/>
<polygon fill="#FFDB72" points="430.375,226.214 450.576,243.345 382.22,246.413 "/>
<polygon fill="#FFDB72" points="442.833,247.697 439.833,283.03 421.887,270.747 "/>
<polygon fill="#FFDB72" points="442.333,241.53 469.583,310.03 458.803,305.826 "/>
<polygon fill="#FFDB72" points="521.833,232.53 510.827,276.811 498.416,268.197 "/>
<polygon fill="#D79B05" points="443.162,243.036 458.803,305.826 437.583,297.28 "/>
<path fill="#F7A600" d="M450.576,243.345l-68.356,3.068l-23.021-18.087l-16.366-2.545l21.299,25.566l24.43,16.443
	c0,0,31.009,4.199,35.471,2.334L450.576,243.345z"/>
<polygon fill="#FFE477" points="382.22,246.413 390.44,226.446 374.468,208.124 359.199,228.326 "/>
<polygon fill="#FFDB72" points="517.22,313.913 520.499,308.364 515.683,254.522 493.543,315.753 "/>
<polygon fill="#F7A600" points="415.105,210.711 390.44,226.446 382.22,246.413 430.375,226.214 "/>
<polyline fill="#FFCA00" points="415.105,210.711 374.468,208.124 390.44,226.446 414.636,212.351 "/>
<polyline fill="#FFCA00" points="385.933,154.979 368.28,159.363 383.107,177.446 396.333,155.697 "/>
<polyline fill="#FFCA00" points="355.958,167.28 323.593,201.874 339.565,220.196 358.333,196.405 "/>
<polyline fill="#FFCA00" points="533.091,252.038 517.466,274.257 520.315,308.196 526.5,296.363 "/>
<polygon fill="#F7A600" points="411.348,194.268 366.583,178.03 357.555,195.687 374.468,208.124 415.105,210.711 "/>
<polygon fill="#D79B05" points="358.333,196.78 337.605,197.739 324.305,202.937 343.333,227.28 359.199,228.326 "/>
<polyline fill="#FFE477" points="374.468,208.124 358.023,195.676 359.199,228.326 374.468,208.831 "/>
<polyline fill="#FFE477" points="368.458,159.28 354.833,168.03 358.083,197.28 366.583,178.03 "/>
<polygon fill="#FFE477" points="529.333,506.78 544.164,492.948 552.083,503.28 565.583,525.03 564.583,528.53 "/>
<polygon fill="#D79B05" points="530.333,508.53 524.083,485.53 514.501,429.864 544.833,494.28 540.083,501.78 "/>
<polygon fill="#FFCA00" points="514.001,428.864 523.333,422.28 540.583,486.446 "/>
<polyline fill="#D79B05" points="514.501,429.031 523.833,423.03 502.556,381.981 507.333,399.53 513.333,423.28 "/>
<path fill="#463F3D" d="M503.966,389.981"/>
<polygon fill="#BE7C00" points="502.556,381.981 500.677,370.984 517.315,317.011 523.333,422.28 "/>
<polyline fill="#F7A600" points="500.677,370.984 520.583,307.78 493.981,315.503 500.324,366.484 "/>
<polygon fill="#BE7C00" points="409.333,154.655 417.333,155.78 412.708,166.53 407.583,170.155 407.708,177.53 401.083,181.155 "/>
<polygon fill="#FFDB72" points="401.083,181.155 411.348,194.268 397.833,189.78 "/>
<polygon fill="#BE7C00" points="401.048,180.998 407.708,177.53 412.708,186.03 422.458,189.28 446.957,195.051 411.36,194.512 "/>
<polygon fill="#D79B05" points="412.708,166.53 432.833,157.03 416.833,155.655 "/>
<polygon fill="#FFE477" points="440.072,171.38 437.083,192.53 423.501,192.864 "/>
<polygon fill="#FFDB72" points="440.072,171.38 423.501,192.864 411.716,188.984 "/>
<polygon fill="#D79B05" points="440.072,171.38 406.024,180.922 406.23,185.026 411.716,188.984 "/>
<polyline fill="#FFDB72" points="406.024,180.922 405.487,175.06 430.154,165.871 446.139,150.907 452.344,156.362 440.072,171.38
	406.354,181.833 "/>
<polygon fill="#D79B05" points="405.487,175.06 407.165,169.126 430.154,165.871 "/>
<polygon fill="#FFE477" points="446.139,150.907 407.165,169.126 430.154,165.871 "/>
<polygon fill="#FFCA00" points="467.282,137.186 453.033,140.91 445.561,147.901 409.067,168.133 446.094,151.221 452.297,156.677
	"/>
<polygon fill="#D79B05" points="406.791,170.5 411.788,170.455 415.772,176.729 405.487,175.06 "/>
<polygon fill="#D79B05" points="459.812,146.376 463.323,143.661 483.166,143.03 480.333,152.864 470.598,153.511 "/>
<polyline fill="#BE7C00" points="502.083,185.28 512.965,171.829 506.704,163.377 425.833,194.03 456.86,192.803 "/>
<polygon fill="#FFCA00" points="481.583,174.03 457.123,172.19 477.937,166.437 485.083,149.28 489.413,143.997 504.923,143.122
	516.468,135.52 526.491,155.499 507.339,163.788 "/>
<polyline fill="#FFCA00" points="502.083,185.28 505.052,179.413 512.965,171.829 506.833,163.78 526.491,155.499 527.745,167.982
	522.083,183.53 503.333,185.28 "/>
<polygon fill="#FFDB72" points="518.333,128.78 531.149,142.823 530.333,179.28 522.083,183.53 525.785,154.717 516.468,135.52 "/>
<polyline fill="#BE7C00" points="535.208,158.78 539.208,144.78 518.333,128.78 530.083,141.905 529.958,179.405 532.729,180.303
	"/>
<polygon fill="#FFE477" points="439.499,171.53 467.366,137.134 463.166,148.197 470.833,153.364 "/>
<polygon fill="#FFDB72" points="505.783,88.274 514.321,111.798 496.521,95.887 499.083,118.78 517.484,128.915 515.623,103.798 "/>
<polygon fill="#D79B05" points="492.49,91.432 490.196,117.638 500.172,118.598 499.81,104.915 497.019,96.17 "/>
<polygon fill="#BE7C00" points="491.833,101.655 514.321,111.798 505.783,88.274 "/>
<polygon fill="#FFDB72" points="546.083,85.78 523.428,110.099 519.91,130.547 531.783,108.779 "/>
<polygon fill="#D79B05" points="539.208,144.78 554.869,112.297 546.145,116.757 520.084,130.114 "/>
<polyline fill="#FFE477" points="546.179,86.091 540.834,119.614 520.084,130.114 531.334,106.53 "/>
<polyline fill="#BE7C00" points="467.583,203.53 461.326,268.04 458.486,236.7 466.833,191.53 "/>
<polyline fill="#FFCA00" points="466.833,191.53 478.437,195.396 489.166,260.363 461.326,268.04 "/>
<polygon fill="#BE7C00" points="476.291,188.983 493.166,186.864 492.661,288.858 "/>
</svg>
