<?xml version="1.0" encoding="utf-8"?>
<!-- Generator: Adobe Illustrator 18.0.0, SVG Export Plug-In . SVG Version: 6.00 Build 0)  -->
<!DOCTYPE svg PUBLIC "-//W3C//DTD SVG 1.1//EN" "http://www.w3.org/Graphics/SVG/1.1/DTD/svg11.dtd">
<svg version="1.1" id="Ebene_1" xmlns="http://www.w3.org/2000/svg" xmlns:xlink="http://www.w3.org/1999/xlink" x="0px" y="0px"
	 viewBox="0 0 612 792" enable-background="new 0 0 612 792" xml:space="preserve">
<polygon fill="#F7A600" points="251.5,384.3 243.5,323.3 236.9,363.2 "/>
<polygon fill="#F7A600" points="269.7,323.4 267.1,361.6 243.7,312.3 264.1,314.7 "/>
<polygon fill="#FFDB72" points="292.2,304.8 280.6,302.3 282.1,290.6 304.7,306.1 "/>
<polygon fill="#FFDB72" points="308.7,320.8 284.3,310.6 304.7,306.1 "/>
<polygon fill="#FFE477" points="273.4,305.8 282.5,311.2 304.7,306.1 291.7,304.7 "/>
<polygon fill="#FFE477" points="247.5,341.7 254.5,313.9 236.9,307.9 241.7,331.3 236.9,363.3 "/>
<polyline fill="#FFCA00" points="266.5,322.8 263.1,314.5 300.9,320.9 267.1,323.1 "/>
<polygon fill="#FFE477" points="311.3,326.5 285.2,318.8 277.7,360.1 294.6,383.5 "/>
<polygon fill="#D79B05" points="265.4,409.8 267.9,396 283.4,405.4 293.7,379.2 275,347.6 254.7,380 "/>
<polygon fill="#FFDB72" points="353,314.6 336.4,318.5 337.7,297.9 "/>
<polygon fill="#FFE477" points="326.1,291.9 335.3,318.3 346.1,308.4 336.2,292.4 "/>
<polygon fill="#BE7C00" points="256.8,243.8 264.6,228 266.5,246.1 263,250.1 "/>
<polygon fill="#BE7C00" points="221.2,261.3 227.5,242.2 231,260.5 231.9,267.4 227.5,264.5 "/>
<polygon fill="#F7A600" points="247.3,273.7 261,265.8 264.7,273 "/>
<polyline fill="#FFDB72" points="268.2,265.1 280.7,271.1 294.8,290.9 284.9,279.4 264.7,273 261,265.8 "/>
<polygon fill="#FFE477" points="281,271.4 295.4,282.3 295.7,292.2 "/>
<polygon fill="#F7A600" points="297.2,432.9 303.7,466.4 306.8,419.6 306.8,395.2 283.2,405.1 "/>
<polygon fill="#FFE477" points="306.8,419.6 307,403.2 311.3,448.6 319.2,474.8 316.9,469.5 304.8,438.8 "/>
<polygon fill="#FFCA00" points="312.5,483 334,510.7 315.8,466.5 304.8,438.8 303.7,466.4 "/>
<polygon fill="#FFDB72" points="333.3,508.5 321.9,511.8 311.3,479.5 "/>
<polygon fill="#FFE477" points="333.3,508.5 335.7,517.8 334.5,523.3 322.9,518.2 321.6,511 "/>
<polygon fill="#FFDB72" points="334.5,523.3 335.5,528.6 337.8,533.4 324.9,535.8 323,517.8 "/>
<polyline fill="#F7A600" points="324.9,534.7 337.9,533 336.9,539.6 333.6,552.6 324.4,559.8 324.3,540.8 324.6,536.1 "/>
<polygon fill="#FFE477" points="387.7,328.1 384.8,343.3 384,361.7 378.7,400.7 360.5,390.4 343.9,372.9 "/>
<polygon fill="#F7A600" points="384,361.7 384.3,386 388.8,394.1 385,420.4 378.7,400.7 "/>
<polygon fill="#FFDB72" points="362.4,358.9 374.4,344.9 370.4,368.6 370.1,395.7 360.5,390.4 353.9,383.5 "/>
<polygon fill="#FFDB72" points="388.4,393.5 395.7,399.7 388,432.7 385,420.4 "/>
<polygon fill="#BE7C00" points="388,432.6 389.5,438.4 395.7,446 398.3,425.7 398,404 395.7,399.7 "/>
<polygon fill="#FFDB72" points="395.7,446 397.7,463.9 391.7,464.9 389.5,438.4 "/>
<polygon fill="#FFE477" points="397.7,463.9 398.6,476.9 394.6,489.2 389.9,485 389.1,474.8 391.7,464.9 "/>
<polygon fill="#FFDB72" points="394.6,489.2 394.6,495.4 384.3,495.4 389.9,485 "/>
<polygon fill="#F7A600" points="360.4,414.6 362,429.9 366,434.3 366.2,422.4 368.1,394.7 362.8,391.5 "/>
<polygon fill="#BE7C00" points="329.9,375.6 336.9,383.8 347.5,392.3 357.9,399.4 358.5,388.1 343.8,372.7 "/>
<polygon fill="#FFDB72" points="366,434.3 364.6,449.5 358.6,450.2 362.1,429.7 "/>
<polygon fill="#FFE477" points="362.8,391.5 360.6,413.1 357.6,399.5 358.4,388.3 "/>
<polygon fill="#FFE477" points="364.6,449.5 365.5,458.7 361.5,467.5 356.8,464.5 356,457.2 358.6,450.2 "/>
<polygon fill="#FFDB72" points="361.5,467.5 361.5,471.9 351.2,471.9 356.8,464.5 "/>
<polygon fill="#FFDB72" points="325.5,320.9 322.8,332.8 308.3,323.4 291.9,319.5 "/>
<polygon fill="#D79B05" points="356.8,295.5 358.4,311.1 347.2,314.5 346.1,308.3 "/>
<polygon fill="#FFCA00" points="308.3,323.4 291.9,319.5 296.3,335.8 311.7,344.1 322.8,332.8 "/>
<polygon fill="#BE7C00" points="267.1,361.6 249,387.8 245.2,350.3 245,313 "/>
<polygon fill="#FFCA00" points="297,356.5 285.4,325.7 311.7,344.1 "/>
<polygon fill="#FFDB72" points="346.7,358.7 297,356.5 311.7,344.1 "/>
<polygon fill="#FFDB72" points="317.8,376.4 304.8,385.4 302.6,359.7 "/>
<polygon fill="#FFDB72" points="291,401.9 283.1,405 303,355.2 "/>
<polygon fill="#FFDB72" points="262.2,374.6 253.2,380.8 245.2,348.6 "/>
<polygon fill="#D79B05" points="306.4,395.7 291,401.9 302.4,356.3 "/>
<polygon fill="#FFE477" points="363.4,345.6 352.3,330.9 340.7,344.2 346.7,358.7 "/>
<polygon fill="#FFDB72" points="265.8,409.2 249.6,364.6 246.1,403.8 248.5,407.8 "/>
<polygon fill="#F7A600" points="311.7,344.1 346.7,358.7 340.7,344.2 322.8,332.8 "/>
<polyline fill="#FFCA00" points="322.8,332.8 323.1,334 340.7,344.2 352.3,330.9 322.8,332.8 "/>
<polygon fill="#FFCA00" points="336.4,292.8 346,308.6 356.8,295.5 344,292.3 "/>
<polygon fill="#FFCA00" points="364,322.4 377.7,339.7 389.3,326.4 365.8,301.2 "/>
<polygon fill="#FFCA00" points="241.8,395.1 246.3,403.7 248.4,379 237,362.8 "/>
<polygon fill="#F7A600" points="322.8,332.8 352.3,330.9 364.6,321.9 358,309 325.5,320.9 "/>
<polygon fill="#D79B05" points="363.4,345.6 374.9,344.9 388.8,327.1 379.1,323.3 364,322.7 "/>
<polygon fill="#FFE477" points="352.3,331.4 363.4,345.6 364.3,321.9 352.3,330.9 "/>
<polygon fill="#FFE477" points="358,309 364.2,323.1 366.6,301.8 356.7,295.4 "/>
<polygon fill="#FFE477" points="214.1,563.8 213.4,561.3 223.2,545.5 229,537.9 239.7,548 "/>
<polygon fill="#D79B05" points="231.9,544.4 228.5,539 250.5,492.1 243.5,532.6 239,549.3 "/>
<polygon fill="#FFCA00" points="231.5,533.2 244.1,486.6 250.9,491.4 "/>
<polyline fill="#D79B05" points="251.4,487.3 255.7,470 259.2,457.3 243.7,487.1 250.5,491.5 "/>
<polygon fill="#BE7C00" points="244.1,486.6 248.5,410.1 260.6,449.3 259.2,457.3 "/>
<polyline fill="#F7A600" points="260.8,446 265.5,409 246.1,403.4 260.6,449.3 "/>
<polygon fill="#BE7C00" points="332.9,311.3 328.1,308.7 328.2,303.4 324.5,300.7 321.2,292.9 327,292.1 "/>
<polygon fill="#FFDB72" points="335.3,317.6 325.5,320.9 332.9,311.3 "/>
<polygon fill="#BE7C00" points="325.5,321 299.6,321.5 317.4,317.2 324.5,314.8 328.1,308.7 333,311.2 "/>
<polygon fill="#D79B05" points="321.5,292.8 309.9,293.8 324.5,300.7 "/>
<polygon fill="#FFE477" points="316.6,319.9 306.8,319.6 304.7,306.1 "/>
<polygon fill="#FFDB72" points="325.2,317 316.6,319.9 304.7,306.1 "/>
<polygon fill="#D79B05" points="325.2,317 329.2,314.1 329.4,311.1 304.7,306.1 "/>
<polyline fill="#FFDB72" points="329.2,311.8 304.7,306.1 295.7,293.5 300.2,289.3 311.9,300.2 329.7,306.9 329.4,311.1 "/>
<polygon fill="#D79B05" points="311.9,300.2 328.6,302.6 329.7,306.9 "/>
<polygon fill="#FFE477" points="311.9,300.2 328.6,302.6 300.2,289.3 "/>
<polygon fill="#FFCA00" points="295.7,293.5 300.2,289.5 327.2,301.8 300.7,287.1 295.2,282.1 284.9,279.4 "/>
<polygon fill="#D79B05" points="329.7,306.9 322.3,308.1 325.2,303.6 328.8,303.6 "/>
<polyline fill="#BE7C00" points="292.4,319.8 315,320.7 256.2,298.4 251.7,304.5 259.5,314.3 "/>
<polygon fill="#F7A600" points="255.7,298.7 241.8,292.7 249.1,278.1 257.5,283.7 268.7,284.3 271.9,288.2 277.1,300.6 292.2,304.8 
	274.4,306.1 "/>
<polyline fill="#FFCA00" points="258.6,314.3 245,313 240.9,301.8 241.8,292.7 256.1,298.7 251.7,304.5 257.4,310 259.5,314.3 "/>
<polygon fill="#FFDB72" points="249.1,278.1 242.3,292.1 245,313 239,310 238.4,283.4 247.7,273.3 "/>
<polyline fill="#BE7C00" points="237.3,310.7 239.3,310 239.2,282.8 247.7,273.3 232.5,284.9 235.5,295.1 "/>
<polygon fill="#FFE477" points="282.3,291.1 287.9,287.4 284.8,279.3 304.7,306.1 "/>
<polygon fill="#FFDB72" points="249.7,255.1 248.3,273.3 261.7,266 263.6,249.3 250.6,260.9 256.8,243.8 "/>
<polygon fill="#D79B05" points="263.2,249.6 261.2,255.9 261,265.8 268.2,265.1 266.5,246.1 "/>
<polygon fill="#BE7C00" points="256.8,243.8 250.6,260.9 267,253.6 "/>
<polygon fill="#FFDB72" points="237.9,258.7 246.6,274.5 244,259.7 227.5,242 "/>
<polygon fill="#D79B05" points="246.4,274.2 227.5,264.5 221.2,261.3 232.5,284.9 "/>
<polygon fill="#FFE477" points="238.3,257 246.4,274.2 231.4,266.6 227.5,242.2 "/>
<polyline fill="#BE7C00" points="285.2,318.8 291.2,351.7 289.2,374.4 284.6,327.6 "/>
<polyline fill="#FFCA00" points="289.2,374.4 269,368.9 276.7,321.7 285.2,318.8 "/>
<polygon fill="#BE7C00" points="266.4,389.6 266.1,315.5 278.3,317 "/>
<polygon fill="#FFCA00" points="343.8,372.7 329.9,375.6 317.8,376.4 302.6,359.7 302.4,356.9 346.7,358.7 363.4,345.6 371.4,344.9 
	"/>
<polygon fill="#BE7C00" points="285.4,281.8 271.9,281.8 271.9,288.2 282.3,291.1 287.9,287.4 "/>
<polyline fill="#D79B05" points="271.9,281.8 271.9,288.2 268.7,284.3 257.5,283.7 249.1,278.1 247.7,273.3 264.7,273 284.8,279.3 
	285.4,281.8 "/>
<polygon fill="#D79B05" points="280.6,302.3 277.1,300.6 271.9,288.2 282.3,291.1 "/>
</svg>
